<svg width="200" height="150" viewBox="0 0 200 150" fill="none" xmlns="http://www.w3.org/2000/svg">
<g clip-path="url(#clip0_7_239)">
<path d="M200 151.611C199.854 155.512 199.47 159.018 198.913 161.545C198.356 164.071 197.658 165.465 196.937 165.493H2.89539C2.26728 165.472 1.65495 164.404 1.13841 162.428C0.621854 160.453 0.225107 157.663 0 154.421C8.80659 142.085 32.1698 132.096 62.4529 127.436C64.1395 127.165 65.8472 126.924 67.576 126.713H67.8966C68.3049 126.657 68.7337 126.623 69.1543 126.555C70.9906 126.337 72.8488 126.13 74.7287 125.935L75.378 125.867L77.6038 125.652L78.3962 125.585C79.9602 125.449 81.5379 125.329 83.1287 125.223C88.1701 124.885 93.3387 124.682 98.5939 124.648H103.197C104.652 124.648 106.1 124.648 107.542 124.648L111.883 124.806C120.685 125.133 129.166 125.935 137.185 127.063L140.351 127.549C141.866 127.774 143.363 128.023 144.843 128.294C170.411 132.808 190.456 141.239 200 151.611Z" fill="#3F3D56"/>
<path d="M112.644 4.92957H109.579V58.4507H112.644V4.92957Z" fill="#575A89"/>
<path d="M121.073 4.92957H118.008V58.4507H121.073V4.92957Z" fill="#575A89"/>
<path d="M103.778 136.225C106.326 136.225 108.391 134.327 108.391 131.986C108.391 129.644 106.326 127.746 103.778 127.746C101.23 127.746 99.1648 129.644 99.1648 131.986C99.1648 134.327 101.23 136.225 103.778 136.225Z" fill="#575A89"/>
<path d="M87.4406 54.838C87.4406 54.838 92.0383 51.4014 96.0766 52.5915C100.115 53.7817 110.636 54.9718 112.475 61.0422C114.314 67.1127 112.475 133.894 112.475 133.894C112.475 133.894 103.556 136.007 101.111 134.951C98.6667 133.894 98.9502 123.852 98.9502 123.852L98.2375 64.6197L87.4406 54.838Z" fill="#6C63FF"/>
<path opacity="0.1" d="M87.4406 54.838C87.4406 54.838 92.0383 51.4014 96.0766 52.5915C100.115 53.7817 110.636 54.9718 112.475 61.0422C114.314 67.1127 112.475 133.894 112.475 133.894C112.475 133.894 103.556 136.007 101.111 134.951C98.6667 133.894 98.9502 123.852 98.9502 123.852L98.2375 64.6197L87.4406 54.838Z" fill="black"/>
<path d="M129.31 130.472L109.946 134.415L109.747 131.254L109.617 68.9507C109.613 66.0386 108.88 63.1665 107.474 60.5568C106.067 57.947 104.027 55.6698 101.51 53.9014C101.51 53.9014 111.54 53.7817 119.226 56.9648C120.866 57.669 122.513 58.3099 124.199 58.8803C126.291 59.5845 129.126 61.0986 129.31 64.0845C129.548 67.9718 130.353 106.479 130.644 120.5C130.715 123.861 130.266 127.213 129.31 130.458V130.472Z" fill="#6C63FF"/>
<path d="M112.644 0.704224H108.812V5.6338H112.644V0.704224Z" fill="#535461"/>
<path opacity="0.1" d="M112.644 0.704224H108.812V5.6338H112.644V0.704224Z" fill="black"/>
<path d="M121.073 1.40845H117.241V6.33803H121.073V1.40845Z" fill="#535461"/>
<path d="M121.073 1.65468H116.815C116.019 1.66823 115.247 1.82594 114.585 2.10973C113.923 2.39352 113.398 2.7919 113.07 3.25917C113.013 3.34338 112.955 3.42757 112.897 3.52113L111.961 2.9364L110.009 1.72018L108.812 0.976389C108.812 0.976389 116.677 -1.61979 121.073 1.65468Z" fill="#535461"/>
<path d="M123.395 139.211C125.943 139.211 128.008 137.313 128.008 134.972C128.008 132.63 125.943 130.732 123.395 130.732C120.847 130.732 118.782 132.63 118.782 134.972C118.782 137.313 120.847 139.211 123.395 139.211Z" fill="#575A89"/>
<path d="M75.7548 133.423C78.3027 133.423 80.3678 131.525 80.3678 129.183C80.3678 126.842 78.3027 124.944 75.7548 124.944C73.207 124.944 71.1418 126.842 71.1418 129.183C71.1418 131.525 73.207 133.423 75.7548 133.423Z" fill="#575A89"/>
<path d="M84.4215 53.9155C84.4215 53.9155 71.3333 57.0915 70.6283 87.3662C69.9234 117.641 69.7625 120.817 69.7625 120.817C69.7625 120.817 70.0536 129.549 89.3257 134.965H101.149L102.981 65.4014C102.981 65.4014 100.82 54.838 84.4215 53.9155Z" fill="#6C63FF"/>
<path opacity="0.1" d="M83.272 100.852C83.272 100.852 79.9157 58.5211 98 58.331L99.6935 59.8521C99.6935 59.8521 83.8467 54.5775 83.272 100.852Z" fill="black"/>
<path d="M91.4023 142.908C93.9502 142.908 96.0153 141.011 96.0153 138.669C96.0153 136.327 93.9502 134.43 91.4023 134.43C88.8544 134.43 86.7893 136.327 86.7893 138.669C86.7893 141.011 88.8544 142.908 91.4023 142.908Z" fill="#575A89"/>
<path opacity="0.1" d="M117.236 1.82214H117.189C116.32 1.83447 115.475 1.97803 114.751 2.23635C114.028 2.49469 113.454 2.85732 113.097 3.28267C113.033 3.35931 112.969 3.43596 112.907 3.52112L111.884 2.98885C111.875 2.94212 111.875 2.89509 111.884 2.84835C111.98 2.47437 112.344 2.1353 112.898 1.90304C113.43 1.66678 114.067 1.50815 114.746 1.44251C115.425 1.37687 116.124 1.40643 116.776 1.52833C117.006 1.58794 117.284 1.68588 117.236 1.82214Z" fill="black"/>
</g>
<defs>
<clipPath id="clip0_7_239">
<rect width="200" height="150" fill="white"/>
</clipPath>
</defs>
</svg>
