<svg width="185" height="372" viewBox="0 0 185 372" fill="none" xmlns="http://www.w3.org/2000/svg">
<path d="M148.146 360.593H160.406L166.238 313.305L148.144 313.306L148.146 360.593Z" fill="#FFB8B8"/>
<path d="M184.05 371.976L145.519 371.978V357.091L169.163 357.09C171.118 357.09 173.053 357.474 174.86 358.223C176.666 358.971 178.307 360.067 179.689 361.449C181.072 362.832 182.169 364.473 182.917 366.279C183.665 368.085 184.05 370.021 184.05 371.976Z" fill="#2F2E41"/>
<path d="M35.003 353.56L47.009 356.042L62.297 310.915L44.578 307.251L35.003 353.56Z" fill="#FFB8B8"/>
<path d="M67.858 371.978L30.125 364.176L33.14 349.597L56.294 354.385C60.16 355.184 63.551 357.487 65.719 360.786C67.888 364.085 68.657 368.111 67.858 371.977V371.978Z" fill="#2F2E41"/>
<path d="M68.258 201.411C67.224 200.366 66.432 199.107 65.937 197.723C65.442 196.338 65.257 194.863 65.395 193.399C65.532 191.935 65.989 190.519 66.733 189.251C67.476 187.983 68.489 186.894 69.7 186.06L60.186 151.614L77.851 157.341L84.177 189.173C85.443 191.3 85.886 193.817 85.421 196.248C84.956 198.679 83.615 200.855 81.653 202.363C79.691 203.872 77.243 204.608 74.774 204.433C72.306 204.257 69.987 203.182 68.258 201.411Z" fill="#FFB8B8"/>
<path d="M144.564 343.255C143.494 343.256 142.459 342.876 141.644 342.183C140.83 341.489 140.289 340.528 140.12 339.472L117.272 213.573C117.222 213.252 117.069 212.955 116.836 212.728C116.603 212.5 116.303 212.355 115.98 212.314C115.657 212.272 115.33 212.337 115.047 212.498C114.764 212.659 114.541 212.907 114.412 213.206L63.511 330.974C63.058 332.006 62.237 332.832 61.208 333.29C60.18 333.749 59.017 333.808 57.947 333.455L40.067 327.447C39.484 327.251 38.947 326.938 38.49 326.527C38.033 326.115 37.665 325.615 37.409 325.056C37.153 324.496 37.014 323.891 37.001 323.276C36.988 322.661 37.101 322.05 37.334 321.481L61.943 261.198L82.487 170.244L82.632 170.134C83.028 169.833 122.551 140.333 149.559 163.93C174.274 185.523 169.674 308.915 168.501 333.431C168.459 334.4 168.103 335.329 167.486 336.077C166.869 336.825 166.025 337.352 165.082 337.579L145.656 343.122C145.299 343.21 144.932 343.255 144.564 343.255Z" fill="#2F2E41"/>
<path d="M105.834 63.559C119.399 63.559 130.395 52.563 130.395 38.998C130.395 25.433 119.399 14.4369 105.834 14.4369C92.27 14.4369 81.273 25.433 81.273 38.998C81.273 52.563 92.27 63.559 105.834 63.559Z" fill="#FFB8B8"/>
<path d="M153.59 190.411C152.556 189.366 151.764 188.107 151.269 186.723C150.775 185.339 150.59 183.863 150.727 182.399C150.865 180.935 151.321 179.52 152.065 178.252C152.809 176.984 153.822 175.894 155.032 175.06L145.519 140.615L163.183 146.342L169.509 178.173C170.776 180.3 171.219 182.817 170.753 185.248C170.288 187.679 168.948 189.855 166.985 191.363C165.023 192.872 162.576 193.608 160.107 193.433C157.638 193.257 155.319 192.182 153.59 190.411Z" fill="#FFB8B8"/>
<path d="M78.612 180.593C78.271 180.593 77.934 180.526 77.618 180.396C67.246 176.18 75.516 93.882 75.874 90.38L75.913 90.23C76.17 89.645 76.429 89.071 76.691 88.51C79.246 82.828 83.527 78.095 88.925 74.984C94.323 71.873 100.564 70.541 106.762 71.178C113.06 71.662 119.053 74.089 123.912 78.125C128.772 82.16 132.26 87.604 133.893 93.706L153.112 164.123C153.317 164.871 153.325 165.659 153.135 166.411C152.946 167.163 152.564 167.853 152.029 168.415C151.494 168.976 150.822 169.389 150.08 169.614C149.338 169.839 148.55 169.869 147.793 169.699C132.84 166.359 96.601 160.43 83.091 177.467C81.432 179.561 79.956 180.593 78.612 180.593Z" fill="#6C63FF"/>
<path d="M153.086 173.833C152.593 173.832 152.103 173.751 151.637 173.592C151.061 173.4 150.531 173.092 150.079 172.688C149.626 172.283 149.261 171.791 149.005 171.241L132.279 135.582L116.004 88.733C115.307 86.719 115.205 84.546 115.709 82.476C116.213 80.405 117.303 78.523 118.848 77.055C120.125 75.844 121.671 74.955 123.36 74.461C125.048 73.967 126.83 73.882 128.558 74.213C130.286 74.544 131.91 75.282 133.296 76.365C134.682 77.448 135.79 78.846 136.529 80.442L158.186 127.232L175.084 157.755C175.375 158.281 175.557 158.859 175.621 159.457C175.685 160.054 175.628 160.658 175.455 161.233C175.281 161.809 174.995 162.343 174.611 162.806C174.228 163.268 173.756 163.65 173.223 163.927L155.156 173.322C154.517 173.656 153.807 173.832 153.086 173.833Z" fill="#6C63FF"/>
<path d="M80 182.599C79.839 182.599 79.677 182.59 79.516 182.573L59.266 180.425C58.662 180.361 58.078 180.176 57.549 179.88C57.019 179.585 56.554 179.186 56.183 178.706C55.811 178.227 55.541 177.677 55.387 177.091C55.233 176.504 55.2 175.892 55.288 175.292L61.041 136.328L73.352 88.285C73.883 86.221 74.998 84.354 76.562 82.906C78.126 81.458 80.074 80.492 82.173 80.121C83.906 79.817 85.686 79.93 87.367 80.451C89.047 80.972 90.579 81.885 91.837 83.115C93.094 84.346 94.041 85.858 94.598 87.526C95.155 89.195 95.307 90.972 95.041 92.711L87.249 143.678L84.476 178.456C84.386 179.582 83.876 180.633 83.047 181.4C82.218 182.168 81.13 182.596 80 182.599Z" fill="#6C63FF"/>
<path d="M109.715 25.791L130.126 24.304C130.815 19.686 129.935 14.9713 127.627 10.913C125.319 6.85461 121.717 3.68741 117.397 1.91821C108.696 -1.38669 97.898 2.28431 94.556 7.54931C90.155 7.16731 85.724 7.79411 81.602 9.38201C77.48 10.97 73.774 13.4772 70.766 16.713C67.759 19.949 65.529 23.828 64.246 28.055C62.964 32.283 62.662 36.747 63.365 41.108C64.067 45.47 65.755 49.613 68.3 53.224C70.845 56.835 74.18 59.818 78.051 61.946C81.923 64.074 86.228 65.291 90.641 65.504C95.053 65.718 99.456 64.922 103.515 63.178C95.091 51.354 99.416 32.563 109.715 25.791Z" fill="#2F2E41"/>
<path d="M72.594 14.5162C66.261 8.72941 58.519 4.10371 50.001 3.08171C41.483 2.05971 32.176 5.18081 27.272 12.2202C22.3678 19.26 23.2223 30.202 30.12 35.302C32.953 37.397 35.101 40.283 36.295 43.597C37.488 46.912 37.673 50.505 36.827 53.925C35.98 57.344 34.139 60.436 31.537 62.81C28.934 65.184 25.687 66.734 22.2043 67.265C9.5391 69.194 0.00269853 82.244 0.950899 95.02C1.8991 107.796 12.3679 118.934 24.8544 121.801C37.341 124.668 51.003 119.738 59.718 110.347C68.432 100.957 72.335 87.625 71.342 74.852C70.349 62.08 64.742 49.911 56.68 39.954C54.491 37.251 56.136 32.963 58.948 30.916C61.761 28.869 65.343 28.297 68.635 27.172C71.927 26.048 75.325 23.931 76.084 20.536C76.843 17.141 72.994 13.1765 72.594 14.5162Z" fill="#2F2E41"/>
</svg>
