<svg width="705" height="561" viewBox="0 0 705 561" fill="none" xmlns="http://www.w3.org/2000/svg">
<g clip-path="url(#clip0_6_188)">
<path d="M164.703 191.736H159.703V246.736H164.703V191.736Z" fill="#F2F2F2"/>
<path d="M270.438 559.992H73.438L73.658 537.104L73.678 535.114L75.438 355.992H269.438L269.688 407.738L269.698 409.728L270.438 559.992Z" fill="#E6E6E6"/>
<path d="M508.369 170.467L540.245 116.428C541.589 114.135 541.977 111.405 541.326 108.828C540.675 106.251 539.036 104.033 536.764 102.653V102.653C535.589 101.939 534.281 101.472 532.919 101.281C531.557 101.089 530.171 101.177 528.844 101.538C527.517 101.9 526.278 102.528 525.202 103.384C524.126 104.241 523.236 105.307 522.585 106.518L491.195 163.666L470.657 197.588C468.861 197.326 467.028 197.623 465.408 198.44C463.787 199.256 462.457 200.551 461.598 202.15C460.739 203.748 460.393 205.572 460.607 207.374C460.821 209.176 461.584 210.869 462.794 212.221C464.003 213.574 465.599 214.522 467.366 214.936C469.133 215.35 470.984 215.21 472.669 214.536C474.353 213.861 475.789 212.684 476.781 211.165C477.773 209.645 478.274 207.857 478.215 206.044L508.369 170.467Z" fill="#A0616A"/>
<path d="M538.715 130.369C539.352 130.218 539.921 129.863 540.336 129.358C540.752 128.853 540.989 128.225 541.014 127.572C541.058 126.766 541.354 125.995 541.858 125.365C541.957 125.244 542.064 125.13 542.178 125.024C542.88 124.398 543.421 123.612 543.754 122.732C544.087 121.853 544.203 120.906 544.092 119.972C543.681 116.904 544.789 113.346 546.148 110.408C547.635 107.193 549.319 104.01 549.993 100.533C550.965 95.5168 549.488 89.5725 543.306 88.0846C540.667 87.4925 537.904 87.8283 535.483 89.0354C530.389 91.4919 527.277 96.3789 524.344 101.083C524.344 101.083 517.338 108.373 512.453 111.916C513.729 112.41 513.572 114.444 512.514 115.311C511.456 116.178 509.986 116.261 508.635 116.478C506.932 116.75 504.997 117.529 505.101 119.648C505.14 120.155 505.283 120.647 505.522 121.095C505.761 121.543 506.089 121.937 506.487 122.252C513.883 128.365 522.462 132.882 531.687 135.519C533.736 136.104 536.034 136.571 537.918 135.576C539.802 134.58 540.535 131.478 538.715 130.369Z" fill="#6C63FF"/>
<path d="M587.328 224.152L522.328 223.152L520.328 208.152L526.328 174.152H577.328L587.328 224.152Z" fill="#A0616A"/>
<path d="M500.069 538.978H489.031L483.778 496.405H500.069V538.978Z" fill="#A0616A"/>
<path d="M505.894 558.103H497.979L496.566 550.629L492.947 558.103H471.954C470.947 558.103 469.967 557.781 469.157 557.185C468.346 556.588 467.747 555.748 467.448 554.788C467.148 553.827 467.164 552.796 467.492 551.844C467.82 550.893 468.444 550.072 469.272 549.5L486.037 537.921V530.366L503.671 531.419L505.894 558.103Z" fill="#2F2E41"/>
<path d="M649.348 503.147L640.294 509.46L611.634 477.542L624.997 468.225L649.348 503.147Z" fill="#A0616A"/>
<path d="M665.065 515.502L658.572 520.029L653.139 514.707L654.445 522.907L637.224 534.915C636.398 535.491 635.411 535.787 634.405 535.762C633.399 535.736 632.427 535.39 631.632 534.773C630.837 534.156 630.26 533.301 629.985 532.333C629.71 531.365 629.752 530.335 630.104 529.392L637.233 510.305L632.912 504.108L647.979 494.885L665.065 515.502Z" fill="#2F2E41"/>
<path d="M278.432 335.384H62.9341V359.152H278.432V335.384Z" fill="#E6E6E6"/>
<path d="M204.826 306.749L204.096 304.189H204.26C204.712 304.188 205.145 304.008 205.464 303.688C205.784 303.368 205.963 302.934 205.963 302.482C205.963 302.03 205.784 301.597 205.464 301.277C205.145 300.957 204.712 300.776 204.26 300.775C196.545 298.943 188.507 298.943 180.791 300.775C180.34 300.775 179.908 300.953 179.588 301.271C179.268 301.589 179.087 302.02 179.085 302.471C179.082 302.922 179.258 303.355 179.574 303.677C179.89 303.998 180.32 304.182 180.771 304.187L180.077 306.749C174.692 314.236 177.327 326.671 180.077 339.179H204.826C207.937 325.546 210.293 312.599 204.826 306.749Z" fill="#E6E6E6"/>
<path d="M192.526 326.804C196.296 326.804 199.353 323.748 199.353 319.977C199.353 316.207 196.296 313.15 192.526 313.15C188.755 313.15 185.698 316.207 185.698 319.977C185.698 323.748 188.755 326.804 192.526 326.804Z" fill="white"/>
<path d="M223.497 270.218L222.768 267.658H222.932C223.384 267.658 223.818 267.478 224.138 267.158C224.459 266.838 224.638 266.404 224.638 265.951C224.638 265.498 224.459 265.064 224.138 264.744C223.818 264.424 223.384 264.244 222.932 264.244C215.216 262.412 207.178 262.412 199.463 264.244C199.012 264.244 198.579 264.422 198.259 264.74C197.94 265.058 197.759 265.489 197.756 265.94C197.753 266.391 197.929 266.824 198.245 267.146C198.561 267.467 198.992 267.651 199.442 267.656L198.748 270.218C193.364 277.705 195.998 290.14 198.748 302.648H223.497C226.609 289.015 228.964 276.068 223.497 270.218Z" fill="#E6E6E6"/>
<path d="M211.197 290.273C214.968 290.273 218.024 287.217 218.024 283.446C218.024 279.675 214.968 276.619 211.197 276.619C207.426 276.619 204.37 279.675 204.37 283.446C204.37 287.217 207.426 290.273 211.197 290.273Z" fill="white"/>
<path d="M187.497 270.218L186.768 267.658H186.932C187.384 267.658 187.818 267.478 188.138 267.158C188.459 266.838 188.638 266.404 188.638 265.951C188.638 265.498 188.459 265.064 188.138 264.744C187.818 264.424 187.384 264.244 186.932 264.244C179.216 262.412 171.178 262.412 163.463 264.244C163.012 264.244 162.579 264.422 162.259 264.74C161.94 265.058 161.759 265.489 161.756 265.94C161.753 266.391 161.929 266.824 162.245 267.146C162.561 267.467 162.992 267.651 163.442 267.656L162.748 270.218C157.364 277.705 159.998 290.14 162.748 302.648H187.497C190.609 289.015 192.964 276.068 187.497 270.218Z" fill="#E6E6E6"/>
<path d="M175.197 290.273C178.968 290.273 182.024 287.217 182.024 283.446C182.024 279.675 178.968 276.619 175.197 276.619C171.427 276.619 168.37 279.675 168.37 283.446C168.37 287.217 171.427 290.273 175.197 290.273Z" fill="white"/>
<path d="M171.497 235.218L170.768 232.658H170.932C171.384 232.658 171.818 232.478 172.138 232.158C172.459 231.838 172.638 231.404 172.638 230.951C172.638 230.498 172.459 230.064 172.138 229.744C171.818 229.424 171.384 229.244 170.932 229.244C163.216 227.412 155.178 227.412 147.463 229.244C147.012 229.244 146.579 229.422 146.259 229.74C145.94 230.058 145.759 230.489 145.756 230.94C145.753 231.391 145.929 231.824 146.245 232.146C146.561 232.467 146.992 232.651 147.442 232.656L146.748 235.218C141.364 242.705 143.998 255.14 146.748 267.648H171.497C174.609 254.015 176.964 241.068 171.497 235.218Z" fill="#E6E6E6"/>
<path d="M159.197 255.273C162.968 255.273 166.024 252.217 166.024 248.446C166.024 244.675 162.968 241.619 159.197 241.619C155.427 241.619 152.37 244.675 152.37 248.446C152.37 252.217 155.427 255.273 159.197 255.273Z" fill="white"/>
<path d="M207.497 235.218L206.768 232.658H206.932C207.384 232.658 207.818 232.478 208.138 232.158C208.459 231.838 208.638 231.404 208.638 230.951C208.638 230.498 208.459 230.064 208.138 229.744C207.818 229.424 207.384 229.244 206.932 229.244C199.216 227.412 191.178 227.412 183.463 229.244C183.012 229.244 182.579 229.422 182.259 229.74C181.94 230.058 181.759 230.489 181.756 230.94C181.753 231.391 181.929 231.824 182.245 232.146C182.561 232.467 182.992 232.651 183.442 232.656L182.748 235.218C177.364 242.705 179.998 255.14 182.748 267.648H207.497C210.609 254.015 212.964 241.068 207.497 235.218Z" fill="#E6E6E6"/>
<path d="M195.197 255.273C198.968 255.273 202.024 252.217 202.024 248.446C202.024 244.675 198.968 241.619 195.197 241.619C191.426 241.619 188.37 244.675 188.37 248.446C188.37 252.217 191.426 255.273 195.197 255.273Z" fill="white"/>
<path d="M150.497 270.218L149.768 267.658H149.932C150.384 267.658 150.818 267.478 151.138 267.158C151.459 266.838 151.638 266.404 151.638 265.951C151.638 265.498 151.459 265.064 151.138 264.744C150.818 264.424 150.384 264.244 149.932 264.244C142.216 262.412 134.178 262.412 126.463 264.244C126.012 264.244 125.579 264.422 125.259 264.74C124.94 265.058 124.759 265.489 124.756 265.94C124.753 266.391 124.929 266.824 125.245 267.146C125.561 267.467 125.992 267.651 126.442 267.656L125.748 270.218C120.364 277.705 122.998 290.14 125.748 302.648H150.497C153.609 289.015 155.964 276.068 150.497 270.218Z" fill="#E6E6E6"/>
<path d="M138.197 290.273C141.968 290.273 145.024 287.217 145.024 283.446C145.024 279.675 141.968 276.619 138.197 276.619C134.427 276.619 131.37 279.675 131.37 283.446C131.37 287.217 134.427 290.273 138.197 290.273Z" fill="white"/>
<path d="M479.497 171.218L478.768 168.658H478.932C479.384 168.658 479.818 168.478 480.138 168.158C480.459 167.838 480.638 167.404 480.638 166.951C480.638 166.498 480.459 166.064 480.138 165.744C479.818 165.424 479.384 165.244 478.932 165.244C471.216 163.412 463.178 163.412 455.463 165.244C455.012 165.244 454.579 165.422 454.259 165.74C453.94 166.058 453.759 166.489 453.756 166.94C453.753 167.391 453.929 167.824 454.245 168.146C454.561 168.467 454.992 168.651 455.442 168.656L454.748 171.218C449.364 178.705 451.998 191.14 454.748 203.648H479.497C482.609 190.015 484.964 177.068 479.497 171.218Z" fill="#CCCCCC"/>
<path d="M467.197 191.273C470.968 191.273 474.024 188.217 474.024 184.446C474.024 180.675 470.968 177.619 467.197 177.619C463.426 177.619 460.37 180.675 460.37 184.446C460.37 188.217 463.426 191.273 467.197 191.273Z" fill="white"/>
<path d="M130.952 306.749L130.222 304.189H130.386C130.838 304.188 131.271 304.008 131.59 303.688C131.91 303.368 132.089 302.934 132.089 302.482C132.089 302.03 131.91 301.597 131.59 301.277C131.271 300.957 130.838 300.776 130.386 300.775C122.671 298.943 114.633 298.943 106.917 300.775C106.467 300.775 106.034 300.953 105.714 301.271C105.394 301.589 105.213 302.02 105.211 302.471C105.208 302.922 105.384 303.355 105.7 303.677C106.016 303.998 106.446 304.182 106.897 304.187L106.203 306.749C100.818 314.236 103.453 326.671 106.203 339.179H130.952C134.063 325.546 136.419 312.599 130.952 306.749Z" fill="#E6E6E6"/>
<path d="M118.652 326.804C122.422 326.804 125.479 323.748 125.479 319.977C125.479 316.207 122.422 313.15 118.652 313.15C114.881 313.15 111.824 316.207 111.824 319.977C111.824 323.748 114.881 326.804 118.652 326.804Z" fill="white"/>
<path d="M167.952 306.749L167.222 304.189H167.386C167.838 304.188 168.271 304.008 168.59 303.688C168.91 303.368 169.089 302.934 169.089 302.482C169.089 302.03 168.91 301.597 168.59 301.277C168.271 300.957 167.838 300.776 167.386 300.775C159.671 298.943 151.633 298.943 143.917 300.775C143.467 300.775 143.034 300.953 142.714 301.271C142.394 301.589 142.213 302.02 142.211 302.471C142.208 302.922 142.384 303.355 142.7 303.677C143.016 303.998 143.446 304.182 143.897 304.187L143.203 306.749C137.818 314.236 140.453 326.671 143.203 339.179H167.952C171.063 325.546 173.419 312.599 167.952 306.749Z" fill="#E6E6E6"/>
<path d="M155.652 326.804C159.422 326.804 162.479 323.748 162.479 319.977C162.479 316.207 159.422 313.15 155.652 313.15C151.881 313.15 148.824 316.207 148.824 319.977C148.824 323.748 151.881 326.804 155.652 326.804Z" fill="white"/>
<path d="M243.792 306.749L243.063 304.189H243.227C243.679 304.188 244.112 304.008 244.431 303.688C244.75 303.368 244.929 302.934 244.929 302.482C244.929 302.03 244.75 301.597 244.431 301.277C244.112 300.957 243.679 300.776 243.227 300.775C235.511 298.943 227.473 298.943 219.758 300.775C219.307 300.775 218.874 300.953 218.555 301.271C218.235 301.589 218.054 302.02 218.051 302.471C218.048 302.922 218.224 303.355 218.54 303.677C218.856 303.998 219.287 304.182 219.737 304.187L219.043 306.749C213.659 314.236 216.293 326.671 219.043 339.179H243.792C246.904 325.546 249.26 312.599 243.792 306.749Z" fill="#E6E6E6"/>
<path d="M231.492 326.804C235.263 326.804 238.319 323.748 238.319 319.977C238.319 316.207 235.263 313.15 231.492 313.15C227.722 313.15 224.665 316.207 224.665 319.977C224.665 323.748 227.722 326.804 231.492 326.804Z" fill="white"/>
<path d="M586.084 210.79L518.205 206.216C518.205 206.216 502.477 242.548 502.729 247.35C502.981 252.152 509.471 250.706 502.726 257.929C495.981 265.152 495.981 255.152 495.981 265.152C495.981 275.152 468.71 497.152 480.71 499.152C501.71 502.152 500.71 498.152 500.71 498.152L533.663 394.909C533.663 394.909 593.16 481.89 611.71 477.152C630.26 472.414 626.71 466.152 626.71 466.152L586.966 385.477C586.966 385.477 581.04 385.466 581.875 378.809C582.71 372.152 577.653 373.278 577.653 373.278C577.653 373.278 570.059 370.911 572.885 367.031C575.71 363.152 568.21 360.908 568.21 360.908L590.099 277.121C590.099 277.121 605.688 240.928 586.084 210.79Z" fill="#2F2E41"/>
<path d="M580.097 72.1987L556.734 73.3822L548.934 86.5221C548.934 86.5221 526.71 88.152 526.71 106.152C526.71 124.152 511.541 116.319 518.625 139.235C525.71 162.152 527.324 166.569 521.017 169.861C514.71 173.152 505.809 172.443 513.76 177.798C521.71 183.152 524.71 185.152 522.71 187.152C520.71 189.152 559.781 173.417 582.246 183.284C582.246 183.284 588.53 178.527 587.12 174.34C585.71 170.152 584.942 171.771 587.326 167.962C589.71 164.152 615.012 97.892 615.012 97.892C615.012 97.892 609.876 88.3423 598.793 88.7471C587.71 89.1519 580.097 72.1987 580.097 72.1987Z" fill="#6C63FF"/>
<path d="M662.069 294.733L620.76 317.151L589.042 258.703C586.069 253.225 585.394 246.791 587.165 240.815C588.937 234.84 593.009 229.812 598.487 226.84C603.965 223.867 610.4 223.192 616.375 224.963C622.351 226.735 627.378 230.807 630.351 236.285L662.069 294.733ZM621.564 314.439L659.358 293.93L628.593 237.239C627.247 234.757 625.424 232.564 623.231 230.787C621.037 229.009 618.514 227.68 615.807 226.877C613.1 226.075 610.261 225.813 607.452 226.107C604.644 226.402 601.921 227.246 599.439 228.593C596.957 229.94 594.765 231.763 592.987 233.957C591.21 236.151 589.882 238.674 589.08 241.382C588.278 244.089 588.017 246.928 588.312 249.736C588.607 252.545 589.452 255.268 590.799 257.749L621.564 314.439Z" fill="#3F3D56"/>
<path d="M697.358 336.453L636.508 369.476C635.042 370.276 633.36 370.587 631.705 370.364C630.05 370.141 628.51 369.396 627.308 368.237L586.217 328.794C585.324 327.937 584.646 326.881 584.238 325.712C583.83 324.544 583.703 323.295 583.868 322.069C584.034 320.842 584.486 319.671 585.189 318.652C585.891 317.633 586.824 316.795 587.912 316.204L679.177 266.676C680.265 266.086 681.477 265.761 682.715 265.727C683.952 265.693 685.18 265.952 686.298 266.482C687.417 267.012 688.395 267.798 689.152 268.777C689.909 269.756 690.425 270.9 690.657 272.116L701.334 328.065C701.65 329.704 701.436 331.402 700.721 332.91C700.005 334.419 698.828 335.66 697.358 336.453Z" fill="#6C63FF"/>
<path d="M633.783 291.879L627.631 295.218L633.355 305.765L639.507 302.426L633.783 291.879Z" fill="#3F3D56"/>
<path d="M617.868 177.441L616.082 114.727C615.999 112.07 614.874 109.553 612.951 107.718C611.027 105.883 608.46 104.878 605.802 104.92V104.92C604.427 104.941 603.071 105.243 601.816 105.805C600.562 106.368 599.435 107.18 598.504 108.193C597.574 109.205 596.859 110.397 596.404 111.694C595.949 112.992 595.763 114.369 595.857 115.74L599.71 180.828L600.384 220.477C598.725 221.211 597.332 222.439 596.394 223.993C595.457 225.546 595.021 227.351 595.144 229.161C595.268 230.972 595.947 232.7 597.087 234.112C598.228 235.523 599.775 236.549 601.519 237.051C603.263 237.552 605.119 237.505 606.835 236.914C608.551 236.324 610.043 235.22 611.11 233.752C612.177 232.284 612.766 230.524 612.797 228.709C612.828 226.895 612.3 225.115 611.284 223.611L617.868 177.441Z" fill="#A0616A"/>
<path d="M622.209 127.342C622.668 126.876 622.961 126.273 623.043 125.624C623.126 124.975 622.993 124.317 622.665 123.751C622.275 123.045 622.114 122.235 622.206 121.433C622.225 121.279 622.255 121.125 622.295 120.974C622.556 120.071 622.595 119.118 622.408 118.196C622.222 117.274 621.816 116.411 621.225 115.679C619.244 113.3 618.288 109.699 617.874 106.488C617.421 102.975 617.152 99.3849 615.871 96.0824C614.024 91.3185 609.609 87.0729 603.583 89.1048C601.034 90.0088 598.874 91.7639 597.468 94.0745C594.463 98.8662 594.43 104.66 594.452 110.203L593.372 108.012C593.501 114.066 592.407 120.084 590.154 125.704C591.497 125.443 592.447 127.248 592.013 128.545C591.579 129.843 590.379 130.695 589.351 131.598C588.054 132.735 586.831 134.425 588.047 136.164C588.35 136.571 588.733 136.912 589.174 137.164C589.614 137.416 590.102 137.575 590.607 137.63C600.121 138.867 609.789 138.123 619.002 135.444C621.048 134.848 623.241 134.02 624.306 132.175C625.371 130.329 624.34 127.313 622.209 127.342Z" fill="#6C63FF"/>
<path d="M602.517 40.5941C601.177 45.5541 602.717 53.364 603.297 57.994C603.917 62.944 595.337 67.3741 590.427 67.6541C590.547 66.0156 590.087 64.3869 589.126 63.0541C589.115 64.6391 588.789 66.2061 588.167 67.6641H547.197C542.037 57.9541 537.647 44.6841 542.387 30.9641C542.627 28.2086 543.676 25.5854 545.401 23.4238C547.127 21.2623 549.453 19.6586 552.087 18.8141L574.427 11.6641C583.237 11.6641 594.047 12.9141 598.917 19.4741C601.072 22.4943 602.516 25.9634 603.139 29.6211C603.763 33.2789 603.55 37.0303 602.517 40.5941V40.5941Z" fill="#2F2E41"/>
<path d="M565.197 66.6641C577.899 66.6641 588.197 56.3666 588.197 43.6641C588.197 30.9615 577.899 20.6641 565.197 20.6641C552.494 20.6641 542.197 30.9615 542.197 43.6641C542.197 56.3666 552.494 66.6641 565.197 66.6641Z" fill="#A0616A"/>
<path d="M594.197 37.6641V42.6641H574.297C574.499 41.6988 574.499 40.7022 574.298 39.7369C574.096 38.7715 573.698 37.8581 573.127 37.0541C573.11 39.0109 572.623 40.9351 571.707 42.6641C560.2 46.0667 550.541 46.0015 542.627 42.6641C542.046 42.6641 541.469 42.5495 540.932 42.3268C540.394 42.1041 539.906 41.7778 539.494 41.3663C539.083 40.9549 538.756 40.4664 538.534 39.9289C538.311 39.3913 538.197 38.8151 538.197 38.2332C538.197 22.9034 550.28 9.98613 565.607 9.67019C569.333 9.59129 573.037 10.2571 576.502 11.6285C579.968 12.9999 583.124 15.0494 585.787 17.6567C588.45 20.264 590.565 23.3768 592.009 26.8124C593.453 30.248 594.197 33.9373 594.197 37.6641V37.6641Z" fill="#2F2E41"/>
<path d="M590.275 3.78284C587.904 2.67341 585.234 2.20324 583.363 0L584.069 3.73236C580.224 1.67504 575.752 1.11638 571.519 2.16437C570.274 2.41359 569.125 3.00965 568.205 3.88377C567.695 4.42218 567.312 5.06824 567.085 5.77429C566.858 6.48034 566.792 7.22841 566.892 7.96332C567.002 8.59927 567.244 9.20522 567.602 9.74249C567.959 10.2798 568.425 10.7365 568.969 11.0836C569.948 11.6383 571.021 12.0039 572.135 12.1614C576.764 13.1023 581.392 14.0432 586.021 14.9841C587.751 15.4925 589.582 15.551 591.341 15.1539C592.302 14.825 593.147 14.2226 593.772 13.4203C594.396 12.6181 594.772 11.6511 594.855 10.638C595.118 7.45123 592.646 4.89222 590.275 3.78284Z" fill="#2F2E41"/>
<path d="M215.14 178.665L105.512 214.042C104.534 214.356 103.472 214.269 102.559 213.802C101.645 213.334 100.955 212.523 100.638 211.546L86.7718 168.575C86.4577 167.598 86.544 166.536 87.0119 165.623C87.4797 164.709 88.2908 164.018 89.2672 163.702L198.895 128.326C199.873 128.012 200.934 128.098 201.848 128.566C202.762 129.034 203.452 129.845 203.769 130.821L217.635 173.792C217.949 174.769 217.863 175.831 217.395 176.745C216.927 177.658 216.116 178.349 215.14 178.665V178.665Z" fill="#F2F2F2"/>
<path d="M188.814 184.566L122.155 206.076C117.186 207.674 111.786 207.235 107.14 204.856C102.494 202.477 98.9819 198.352 97.3734 193.386L94.7381 185.22C93.1408 180.251 93.5797 174.851 95.9587 170.205C98.3377 165.559 102.462 162.047 107.428 160.438L182.253 136.293C187.222 134.695 192.622 135.134 197.268 137.513C201.914 139.892 205.426 144.017 207.035 148.983C209.328 156.118 208.698 163.871 205.282 170.542C201.866 177.213 195.943 182.256 188.814 184.566V184.566Z" fill="white"/>
<path d="M160.861 156.778L116.799 170.996C116.674 171.037 116.542 171.052 116.412 171.041C116.281 171.031 116.154 170.995 116.037 170.935C115.92 170.875 115.816 170.793 115.731 170.693C115.647 170.593 115.582 170.478 115.542 170.353C115.502 170.228 115.486 170.097 115.497 169.966C115.507 169.835 115.544 169.708 115.603 169.591C115.663 169.474 115.745 169.371 115.845 169.286C115.945 169.201 116.061 169.136 116.185 169.096L160.248 154.877C160.499 154.797 160.773 154.819 161.008 154.94C161.243 155.061 161.421 155.27 161.502 155.522C161.583 155.773 161.561 156.047 161.441 156.282C161.321 156.518 161.112 156.696 160.861 156.778V156.778Z" fill="#E6E6E6"/>
<path d="M186.437 159.718L120.07 181.134C119.945 181.175 119.814 181.19 119.683 181.18C119.552 181.17 119.424 181.134 119.307 181.074C119.191 181.014 119.087 180.932 119.001 180.832C118.916 180.732 118.852 180.616 118.812 180.491C118.771 180.366 118.756 180.235 118.767 180.104C118.777 179.973 118.813 179.846 118.873 179.729C118.933 179.612 119.016 179.508 119.116 179.423C119.216 179.338 119.332 179.274 119.457 179.234L185.824 157.818C186.076 157.736 186.35 157.759 186.586 157.879C186.821 158 187 158.209 187.081 158.461C187.162 158.713 187.14 158.987 187.019 159.223C186.899 159.459 186.689 159.637 186.437 159.718V159.718Z" fill="#E6E6E6"/>
<path d="M189.709 169.856L123.342 191.272C123.217 191.313 123.085 191.328 122.955 191.317C122.824 191.307 122.697 191.271 122.58 191.211C122.463 191.151 122.359 191.069 122.274 190.969C122.189 190.869 122.125 190.754 122.085 190.629C122.044 190.504 122.029 190.373 122.04 190.242C122.05 190.111 122.086 189.984 122.146 189.867C122.206 189.75 122.288 189.647 122.388 189.562C122.488 189.477 122.604 189.412 122.728 189.372L189.096 167.956C189.347 167.875 189.621 167.898 189.856 168.018C190.092 168.139 190.269 168.348 190.351 168.6C190.432 168.852 190.41 169.125 190.289 169.361C190.169 169.596 189.96 169.775 189.709 169.856V169.856Z" fill="#E6E6E6"/>
<path d="M189.709 169.856L123.342 191.272C123.217 191.313 123.085 191.328 122.955 191.317C122.824 191.307 122.697 191.271 122.58 191.211C122.463 191.151 122.359 191.069 122.274 190.969C122.189 190.869 122.125 190.754 122.085 190.629C122.044 190.504 122.029 190.373 122.04 190.242C122.05 190.111 122.086 189.984 122.146 189.867C122.206 189.75 122.288 189.647 122.388 189.562C122.488 189.477 122.604 189.412 122.728 189.372L189.096 167.956C189.347 167.875 189.621 167.898 189.856 168.018C190.092 168.139 190.269 168.348 190.351 168.6C190.432 168.852 190.41 169.125 190.289 169.361C190.169 169.596 189.96 169.775 189.709 169.856V169.856Z" fill="#E6E6E6"/>
<path d="M195.152 146.421C201.532 146.421 206.703 141.249 206.703 134.87C206.703 128.49 201.532 123.318 195.152 123.318C188.773 123.318 183.601 128.49 183.601 134.87C183.601 141.249 188.773 146.421 195.152 146.421Z" fill="#6C63FF"/>
<path d="M194.746 139.503C194.591 139.503 194.438 139.467 194.299 139.398C194.161 139.328 194.04 139.228 193.947 139.104L191.498 135.838C191.419 135.733 191.361 135.614 191.329 135.486C191.296 135.359 191.288 135.227 191.307 135.097C191.325 134.967 191.369 134.842 191.436 134.729C191.503 134.616 191.591 134.517 191.696 134.438C191.801 134.359 191.921 134.302 192.048 134.269C192.176 134.237 192.308 134.23 192.438 134.249C192.568 134.267 192.693 134.311 192.806 134.379C192.919 134.446 193.017 134.534 193.096 134.64L194.698 136.776L198.814 130.603C198.961 130.383 199.189 130.23 199.449 130.178C199.708 130.126 199.978 130.179 200.198 130.326C200.419 130.473 200.572 130.701 200.624 130.961C200.676 131.221 200.622 131.491 200.475 131.711L195.577 139.058C195.488 139.191 195.369 139.301 195.23 139.378C195.09 139.456 194.934 139.498 194.774 139.503L194.746 139.503Z" fill="white"/>
</g>
<defs>
<clipPath id="clip0_6_188">
<rect width="704.726" height="560.956" fill="white"/>
</clipPath>
</defs>
</svg>
