<svg width="115" height="372" viewBox="0 0 115 372" fill="none" xmlns="http://www.w3.org/2000/svg">
<path d="M28.6892 195.554C29.3717 194.381 29.7704 193.083 29.8573 191.751C29.9441 190.419 29.7169 189.086 29.1917 187.845C28.6666 186.604 27.8561 185.485 26.8175 184.568C25.779 183.65 24.5375 182.957 23.1807 182.536L21.5683 161.732L7.78162 159.563L10.5008 188.912C9.89384 191.086 10.1626 193.393 11.256 195.394C12.3495 197.396 14.1918 198.953 16.4337 199.772C18.6757 200.591 21.1615 200.613 23.4203 199.836C25.6791 199.059 27.5537 197.535 28.6891 195.554H28.6892Z" fill="#A0616A"/>
<path d="M70.3717 360.395L83.1595 360.394L89.2438 314.363L70.3692 314.364L70.3717 360.395Z" fill="#A0616A"/>
<path d="M67.1096 356.499L92.2944 356.498H92.2954C96.5519 356.498 100.634 358.076 103.644 360.885C106.654 363.693 108.345 367.503 108.345 371.475V371.962L67.1103 371.963L67.1096 356.499Z" fill="#2F2E41"/>
<path d="M28.6472 360.395L41.4358 360.394L47.5192 314.363L28.6455 314.364L28.6472 360.395Z" fill="#A0616A"/>
<path d="M25.3853 356.499L50.5701 356.498H50.5711C54.8276 356.498 58.9098 358.076 61.9196 360.885C64.9295 363.693 66.6206 367.503 66.6209 371.475V371.962L25.3861 371.963L25.3853 356.499Z" fill="#2F2E41"/>
<path d="M25.2928 158.705L19.0346 191.69L27.3792 345.49H46.1588L56.5273 269.84L60.7583 212.131L67.432 345.49L86.8361 346.797L98.0587 270.358L100.918 194.123L97.9039 158.705H25.2928Z" fill="#2F2E41"/>
<path d="M50.8489 57.8443L79.0128 62.7114L86.8361 156.646C86.8361 156.646 52.4135 171.248 39.8963 158.593C27.379 145.939 50.8489 57.8443 50.8489 57.8443Z" fill="#CCCCCC"/>
<path d="M105.612 76.826L79.0128 62.7115L75.362 127.444C75.362 127.444 74.3189 203.37 95.181 203.37L110.828 198.503L102.483 135.231L105.612 76.826Z" fill="#2F2E41"/>
<path d="M19.0342 70.9855L50.849 57.8443L54.4998 114.789C54.4998 114.789 64.9309 190.716 31.5515 193.636C31.5515 193.636 22.1635 194.61 17.9911 187.796L24.2497 131.337L19.0342 70.9855Z" fill="#2F2E41"/>
<path d="M25.2928 73.9058L19.0342 70.9855C19.0342 70.9855 15.9049 70.9855 14.8617 72.9324C13.8186 74.8792 0.771606 131.337 0.771606 131.337L8.75505 184.054L24.2497 177.088L21.0259 133.041L25.2928 73.9058Z" fill="#2F2E41"/>
<path d="M94.2389 202.23C93.4592 201.111 92.9518 199.846 92.7525 198.525C92.5532 197.204 92.6667 195.857 93.0852 194.581C93.5036 193.305 94.2168 192.131 95.1744 191.14C96.1321 190.149 97.311 189.366 98.6279 188.846L98.4739 167.988L112.034 164.809L111.808 194.267C112.597 196.39 112.525 198.709 111.604 200.785C110.683 202.861 108.979 204.549 106.813 205.531C104.647 206.512 102.171 206.718 99.8538 206.11C97.5363 205.501 95.5385 204.121 94.2389 202.23H94.2389Z" fill="#A0616A"/>
<path d="M94.1378 77.7994L105.612 76.826C105.612 76.826 109.784 78.2286 110.828 90.1817C111.871 102.135 111.871 132.123 111.871 132.123L115 185.849H97.2672L92.0516 131.337L94.1378 77.7994Z" fill="#2F2E41"/>
<path d="M68.4059 51.2927C81.9407 51.2927 92.9128 41.0536 92.9128 28.423C92.9128 15.7924 81.9407 5.55334 68.4059 5.55334C54.8711 5.55334 43.8989 15.7924 43.8989 28.423C43.8989 41.0536 54.8711 51.2927 68.4059 51.2927Z" fill="#A0616A"/>
<path d="M64.7524 33.8669L64.4131 28.436C64.334 27.1702 64.7528 25.4066 66.108 25.4976C67.2607 25.575 69.8269 25.9952 70.1674 25.6567C71.4425 24.3889 74.0725 25.683 75.4485 24.5106C76.025 24.0194 76.282 23.1528 77.0334 22.9556C77.5519 22.8889 78.0787 23.0012 78.5147 23.2714C79.7116 23.9037 81.0424 24.2837 82.4136 24.3847C83.0995 24.4264 83.7849 24.2962 84.3987 24.0075C85.0126 23.7188 85.5325 23.2822 85.9046 22.7428C86.0184 22.4715 86.1986 22.2288 86.4308 22.0341C86.7222 21.8921 87.0555 21.8435 87.3794 21.896L91.604 22.153C91.7585 20.0493 91.4244 17.9392 90.6246 15.967C89.8248 13.9948 88.578 12.2071 86.9697 10.7259C84.8973 8.97718 82.5363 7.55171 79.9777 6.50436C77.115 5.2151 74.1958 4.0455 71.2201 2.99552C67.9622 1.84179 64.5506 0.817642 61.0703 0.98019C57.5903 1.14273 53.9972 2.71617 52.4179 5.61453C51.2721 5.12962 50.3151 4.32579 49.6781 3.31328C49.4841 3.56062 49.3506 3.84468 49.2871 4.14542C49.2236 4.44616 49.2316 4.75623 49.3106 5.05377C49.3895 5.3513 49.5375 5.62904 49.7441 5.86737C49.9506 6.1057 50.2108 6.29882 50.506 6.43308L46.6808 5.05837C45.9323 6.17156 48.1605 7.50945 47.5767 8.70541C47.3877 9.00968 47.1148 9.26118 46.7864 9.43377C45.0939 10.4514 43.6249 11.7608 42.458 13.2918C40.9092 15.4821 40.3913 18.1542 40.0137 20.7546C39.1738 26.5385 39.0579 33.0106 43.0264 37.5221C43.4763 38.0335 49.828 46.6792 50.4799 46.9396C52.6834 47.8199 50.768 45.0407 52.5383 46.5488C53.9265 47.7314 52.5645 42.4551 54.4321 43.3154C55.1566 43.6176 55.9594 43.7173 56.7434 43.6024C57.5274 43.4875 58.2588 43.163 58.8492 42.6681C59.4236 42.1083 58.6841 39.7457 57.8421 37.607C57.6814 37.1997 57.6302 36.7618 57.693 36.3317C57.7559 35.9017 57.9308 35.4926 58.2025 35.1403C58.4742 34.788 58.8343 34.5032 59.2513 34.311C59.6684 34.1188 60.1295 34.025 60.5944 34.0378C62.6996 34.0974 64.7668 34.0975 64.7524 33.8669Z" fill="#2F2E41"/>
</svg>
