<svg width="120" height="375" viewBox="0 0 120 375" fill="none" xmlns="http://www.w3.org/2000/svg">
<path d="M29.3282 196.689C30.0452 195.504 30.4641 194.192 30.5553 192.845C30.6465 191.499 30.4078 190.151 29.8561 188.896C29.3044 187.642 28.453 186.511 27.362 185.584C26.2709 184.657 24.9668 183.956 23.5413 183.53L21.8475 162.502L7.3642 160.309L10.2208 189.975C9.58315 192.173 9.86545 194.504 11.0142 196.527C12.1629 198.55 14.0982 200.125 16.4535 200.952C18.8087 201.78 21.4202 201.803 23.7931 201.017C26.1659 200.231 28.1354 198.691 29.3281 196.689H29.3282Z" fill="#A0616A"/>
<path d="M73.1168 363.307L86.5508 363.307L92.9424 316.779L73.1142 316.78L73.1168 363.307Z" fill="#A0616A"/>
<path d="M69.6898 359.369L96.1472 359.368H96.1482C100.62 359.368 104.908 360.963 108.07 363.802C111.232 366.641 113.009 370.492 113.009 374.507V374.999L69.6906 375L69.6898 359.369Z" fill="#2F2E41"/>
<path d="M29.284 363.307L42.7189 363.307L49.1097 316.779L29.2823 316.78L29.284 363.307Z" fill="#A0616A"/>
<path d="M25.8573 359.369L52.3147 359.368H52.3157C56.7873 359.368 61.0757 360.963 64.2377 363.802C67.3996 366.641 69.1761 370.492 69.1764 374.507V374.999L25.8582 375L25.8573 359.369Z" fill="#2F2E41"/>
<path d="M25.7602 159.442L19.1858 192.783L27.952 348.241H47.6805L58.5729 271.776L63.0177 213.445L70.0285 348.241L90.4131 349.562L102.203 272.299L105.206 195.242L102.04 159.442H25.7602Z" fill="#2F2E41"/>
<path d="M52.6075 57.4945L82.1945 62.414L90.4131 157.362C90.4131 157.362 54.2512 172.12 41.1015 159.33C27.9518 146.539 52.6075 57.4945 52.6075 57.4945Z" fill="#CCCCCC"/>
<path d="M110.138 76.6808L82.1945 62.4141L78.3592 127.844C78.3592 127.844 77.2634 204.59 99.1796 204.59L115.617 199.67L106.85 135.716L110.138 76.6808Z" fill="#2F2E41"/>
<path d="M19.1853 70.7773L52.6076 57.4945L56.4429 115.053C56.4429 115.053 67.4011 191.799 32.3351 194.75C32.3351 194.75 22.4728 195.734 18.0895 188.847L24.6644 131.78L19.1853 70.7773Z" fill="#2F2E41"/>
<path d="M25.7602 73.7291L19.1853 70.7773C19.1853 70.7773 15.8979 70.7773 14.8021 72.7452C13.7063 74.713 0 131.78 0 131.78L8.38683 185.065L24.6644 178.024L21.2777 133.502L25.7602 73.7291Z" fill="#2F2E41"/>
<path d="M98.1899 203.436C97.3708 202.306 96.8378 201.028 96.6284 199.692C96.419 198.356 96.5383 196.996 96.9779 195.706C97.4175 194.416 98.1667 193.229 99.1727 192.227C100.179 191.225 101.417 190.434 102.801 189.909L102.639 168.826L116.884 165.613L116.647 195.388C117.476 197.534 117.399 199.878 116.432 201.976C115.465 204.074 113.674 205.781 111.399 206.773C109.124 207.765 106.523 207.973 104.089 207.358C101.654 206.743 99.5552 205.348 98.1899 203.436H98.1899Z" fill="#A0616A"/>
<path d="M98.0837 77.6647L110.138 76.6808C110.138 76.6808 114.521 78.0985 115.617 90.1805C116.713 102.263 116.713 132.574 116.713 132.574L120 186.879H101.371L95.8922 131.78L98.0837 77.6647Z" fill="#2F2E41"/>
<path d="M71.0516 50.8722C85.2703 50.8722 96.7968 40.5227 96.7968 27.7559C96.7968 14.9892 85.2703 4.63969 71.0516 4.63969C56.8329 4.63969 45.3064 14.9892 45.3064 27.7559C45.3064 40.5227 56.8329 50.8722 71.0516 50.8722Z" fill="#A0616A"/>
<path d="M67.2135 33.2585L66.8571 27.7691C66.7741 26.4896 67.2139 24.707 68.6377 24.799C69.8486 24.8773 72.5444 25.3019 72.9022 24.9598C74.2417 23.6783 77.0046 24.9864 78.4501 23.8014C79.0558 23.3049 79.3257 22.4289 80.1151 22.2295C80.6598 22.1621 81.2132 22.2757 81.6712 22.5488C82.9286 23.1879 84.3267 23.572 85.7671 23.6741C86.4877 23.7163 87.2077 23.5847 87.8526 23.2929C88.4974 23.0011 89.0436 22.5597 89.4345 22.0145C89.5541 21.7403 89.7434 21.495 89.9873 21.2981C90.2934 21.1546 90.6436 21.1055 90.9838 21.1585L95.422 21.4184C95.5842 19.2919 95.2333 17.1591 94.393 15.1657C93.5528 13.1722 92.243 11.3652 90.5534 9.86801C88.3763 8.10045 85.896 6.65961 83.2081 5.60096C80.2008 4.29781 77.1341 3.1156 74.008 2.0543C70.5855 0.88813 67.0016 -0.147061 63.3454 0.0172387C59.6896 0.181531 55.9149 1.77194 54.2558 4.70154C53.0521 4.21141 52.0467 3.39891 51.3776 2.37548C51.1738 2.62549 51.0336 2.91262 50.9668 3.2166C50.9001 3.52058 50.9086 3.83399 50.9915 4.13474C51.0745 4.43548 51.2299 4.71621 51.4469 4.95711C51.6639 5.19801 51.9372 5.39321 52.2474 5.52892L48.2288 4.13939C47.4426 5.26458 49.7833 6.6169 49.1701 7.82575C48.9715 8.1333 48.6847 8.38751 48.3398 8.56196C46.5618 9.59053 45.0185 10.9141 43.7927 12.4616C42.1656 14.6755 41.6215 17.3765 41.2249 20.0048C40.3426 25.8511 40.2208 32.393 44.3898 36.9531C44.8624 37.4701 51.5351 46.209 52.2199 46.4722C54.5348 47.3619 52.5226 44.5528 54.3823 46.0772C55.8406 47.2725 54.4099 41.9393 56.3718 42.8089C57.1329 43.1144 57.9763 43.2152 58.7999 43.099C59.6235 42.9829 60.3919 42.6548 61.0121 42.1546C61.6156 41.5887 60.8387 39.2007 59.9541 37.0389C59.7853 36.6272 59.7315 36.1846 59.7975 35.7499C59.8635 35.3152 60.0473 34.9017 60.3327 34.5456C60.6181 34.1895 60.9965 33.9017 61.4346 33.7074C61.8726 33.5132 62.3571 33.4183 62.8455 33.4313C65.0571 33.4915 67.2287 33.4916 67.2135 33.2585Z" fill="#2F2E41"/>
</svg>
