<svg width="400" height="600" viewBox="0 0 400 600" fill="none" xmlns="http://www.w3.org/2000/svg">
<g clip-path="url(#clip0_7_257)">
<path d="M384.057 0.00380807H160.748C149.972 0.00327661 139.516 3.6949 131.1 10.4718C122.683 17.2487 116.807 26.7076 114.437 37.2936L1.60562 541.282C0.374883 546.779 0.353185 552.481 1.54206 557.988C2.73094 563.494 5.10162 568.672 8.48783 573.159C11.8741 577.645 16.1939 581.331 21.1443 583.959C26.0949 586.586 31.5561 588.091 37.1452 588.368L266.709 599.758C279.001 600.368 291.094 596.453 300.731 588.744C310.368 581.035 316.89 570.058 319.08 557.863L383.09 201.538L387.852 202.908L400.102 135.371L395.201 134.137L413.067 34.6739C413.833 30.4136 413.656 26.0356 412.548 21.8521C411.441 17.6686 409.431 13.7826 406.661 10.4712C403.891 7.15987 400.43 4.50463 396.524 2.69481C392.618 0.885009 388.364 -0.0347859 384.065 0.00100587L384.057 0.00380807Z" fill="#3F3D56"/>
<path d="M190.143 10.8683H164.079C156.593 10.8684 149.333 13.4466 143.503 18.1747C137.672 22.9029 133.623 29.4968 132.027 36.8618L23.7206 536.738C23.0968 539.617 23.0972 542.596 23.7219 545.474C24.3466 548.352 25.5809 551.061 27.3404 553.414C29.0999 555.767 31.3431 557.71 33.9169 559.11C36.4907 560.511 39.3342 561.336 42.2534 561.527L271.071 576.63C277.527 577.056 283.912 575.074 289.008 571.062C294.105 567.049 297.555 561.287 298.703 554.876L391.12 38.2048C391.718 34.8607 391.581 31.4252 390.716 28.1407C389.852 24.8562 388.282 21.8027 386.118 19.1958C383.954 16.5888 381.247 14.492 378.191 13.0531C375.134 11.6142 371.801 10.8684 368.427 10.8683H343.7C341.307 10.8683 338.98 11.6627 337.08 13.1287C335.181 14.5947 333.814 16.6504 333.192 18.9777C332.642 21.0329 331.435 22.8483 329.757 24.1427C328.08 25.4372 326.024 26.1383 323.911 26.1375H206.521C202.383 26.1374 198.397 24.5648 195.361 21.734C192.325 18.9032 190.461 15.0227 190.143 10.8683Z" fill="white"/>
<path d="M316.634 360.324C317.078 360.34 317.515 360.193 317.862 359.913C318.208 359.632 318.444 359.235 318.523 358.793L369.125 77.5627C369.173 77.2954 369.164 77.0208 369.097 76.7576C369.03 76.4943 368.908 76.2487 368.738 76.0375C368.57 75.8279 368.358 75.6582 368.117 75.5405C367.877 75.4227 367.613 75.3598 367.346 75.3562L137.129 72.6179H137.107C136.69 72.6214 136.285 72.7678 135.96 73.033C135.636 73.2982 135.411 73.6665 135.321 74.0777L75.6678 346.18C75.6096 346.446 75.6089 346.721 75.6659 346.987C75.7229 347.252 75.8362 347.503 75.9981 347.721C76.1585 347.936 76.3642 348.114 76.6005 348.241C76.8368 348.368 77.0978 348.44 77.3652 348.454L316.634 360.324Z" fill="#E6E6E6"/>
<path d="M116.852 378.507C116.642 378.507 116.44 378.579 116.276 378.71C116.111 378.841 115.996 379.024 115.949 379.23L113.793 388.535C113.762 388.666 113.761 388.803 113.787 388.935C113.814 389.067 113.869 389.192 113.949 389.301C114.028 389.409 114.13 389.5 114.248 389.565C114.365 389.631 114.495 389.669 114.628 389.679L236.42 398.396C236.645 398.411 236.869 398.342 237.049 398.204C237.228 398.065 237.352 397.865 237.397 397.642L239.47 386.877C239.495 386.746 239.492 386.611 239.462 386.482C239.431 386.352 239.373 386.232 239.292 386.126C239.211 386.021 239.109 385.935 238.992 385.873C238.875 385.81 238.746 385.775 238.614 385.766L116.909 378.509L116.852 378.507Z" fill="#E6E6E6"/>
<path d="M264.821 432.958C265.041 432.976 265.259 432.914 265.439 432.784C265.617 432.654 265.744 432.465 265.797 432.25L268.436 421.462C268.469 421.33 268.471 421.192 268.445 421.058C268.42 420.924 268.366 420.798 268.286 420.688C268.206 420.578 268.104 420.487 267.985 420.421C267.867 420.354 267.736 420.315 267.601 420.306L112.066 409.351C111.855 409.335 111.645 409.392 111.47 409.513C111.297 409.635 111.169 409.813 111.111 410.018L108.368 419.34C108.329 419.474 108.32 419.614 108.342 419.751C108.364 419.889 108.415 420.019 108.493 420.134C108.572 420.249 108.674 420.344 108.793 420.413C108.912 420.483 109.046 420.525 109.183 420.536L264.821 432.958Z" fill="#E6E6E6"/>
<path d="M256.469 467.537C256.689 467.555 256.907 467.493 257.086 467.364C257.264 467.234 257.391 467.045 257.444 466.829L260.083 456.041C260.116 455.909 260.119 455.771 260.093 455.637C260.067 455.504 260.013 455.378 259.933 455.267C259.853 455.157 259.751 455.066 259.632 455C259.515 454.934 259.383 454.894 259.248 454.885L103.713 443.931C103.503 443.914 103.292 443.971 103.117 444.093C102.944 444.214 102.817 444.393 102.758 444.597L100.016 453.92C99.9768 454.053 99.9675 454.193 99.9889 454.331C100.011 454.468 100.062 454.598 100.14 454.713C100.219 454.828 100.321 454.923 100.441 454.993C100.56 455.063 100.693 455.105 100.831 455.116L256.469 467.537Z" fill="#E6E6E6"/>
<path d="M184.835 526.651C185.057 526.675 185.279 526.616 185.461 526.486C185.643 526.357 185.771 526.165 185.823 525.947L191.403 503.469C191.436 503.338 191.44 503.201 191.415 503.067C191.39 502.935 191.336 502.809 191.258 502.698C191.18 502.588 191.079 502.496 190.962 502.429C190.845 502.363 190.715 502.322 190.581 502.31L95.0673 494.221C94.8445 494.206 94.6227 494.27 94.4427 494.403C94.2626 494.537 94.1355 494.73 94.0835 494.949L89.3234 516.522C89.2949 516.651 89.2938 516.785 89.3206 516.915C89.3475 517.045 89.4015 517.167 89.479 517.275C89.5566 517.382 89.6558 517.471 89.7703 517.537C89.8847 517.603 90.0118 517.643 90.1429 517.655L184.835 526.651Z" fill="#6C63FF"/>
</g>
<defs>
<clipPath id="clip0_7_257">
<rect width="400" height="600" fill="white"/>
</clipPath>
</defs>
</svg>
