<svg width="165" height="461" viewBox="0 0 165 461" fill="none" xmlns="http://www.w3.org/2000/svg">
<path d="M150.445 93.5503C157.884 93.5503 163.915 88.1777 163.915 81.5503C163.915 74.9229 157.884 69.5503 150.445 69.5503C143.006 69.5503 136.976 74.9229 136.976 81.5503C136.976 88.1777 143.006 93.5503 150.445 93.5503Z" fill="#6C63FF"/>
<path d="M30.0565 131.213L31.0052 166.996L87.9311 165.599L76.4273 125.995L30.0565 131.213Z" fill="#FFB6B6"/>
<path d="M141.418 83.2549L132.757 101.903L120.11 98.9811L130.054 79.5555C129.84 78.9317 129.724 78.2704 129.724 77.5844C129.724 73.8537 133.119 70.8293 137.306 70.8293C141.494 70.8294 144.889 73.8537 144.889 77.5845C144.889 79.9637 143.505 82.0514 141.418 83.2549Z" fill="#FFB6B6"/>
<path d="M6.89506 214.815L5.84783 194.655L18.691 192.516L18.9469 213.865C19.4374 214.349 19.8584 214.904 20.1853 215.525C21.9635 218.902 20.3318 222.925 16.5405 224.509C12.7493 226.093 8.23432 224.64 6.45603 221.262C5.32193 219.108 5.57969 216.694 6.89505 214.815H6.89506Z" fill="#FFB6B6"/>
<path d="M98.3333 452.079L109.276 452.28L115.375 413.941L99.2268 413.642L98.3333 452.079Z" fill="#FFB6B6"/>
<path d="M132.864 468.485C132.806 470.891 130.573 472.801 127.873 472.755L106.118 472.352L102.536 465.377L100.911 472.252L92.7028 472.105L95.5813 447.511L98.4419 447.416L110.111 447.003L113.875 446.876L113.713 453.852L130.838 464.863C132.14 465.7 132.898 467.055 132.864 468.486V468.485Z" fill="#2F2E41"/>
<path d="M24.6985 452.079L35.6409 452.28L41.7403 413.941L25.5922 413.642L24.6985 452.079Z" fill="#FFB6B6"/>
<path d="M59.2301 468.485C59.1716 470.891 56.9382 472.801 54.2375 472.755L32.4836 472.352L28.901 465.377L27.2766 472.252L19.0682 472.105L21.9466 447.511L24.8072 447.416L36.476 447.003L40.2405 446.876L40.0782 453.852L57.2036 464.863C58.5058 465.7 59.2633 467.055 59.2301 468.486V468.485Z" fill="#2F2E41"/>
<path d="M15.344 79.7751C-3.26858 90.1873 1.30757 126.4 2.18758 144.784C2.79682 157.512 2.07138 170.46 4.06049 183.047C5.06682 189.415 5.02116 195.758 5.0723 202.235C5.10587 206.487 5.72242 205.396 9.87857 205.034C12.3848 204.815 17.8724 205.733 19.9414 204.448C22.7474 202.707 21.9897 196.564 22.553 194.087C23.2008 191.238 24.0792 188.542 25.0583 185.762C27.8279 177.897 29.9298 169.233 30.0565 160.951C30.241 148.879 30.3288 136.687 29.7413 124.654C29.4319 118.315 28.8465 111.774 27.5416 105.546C27.0038 102.979 25.978 100.597 24.6801 98.2496C22.7394 94.74 21.8286 94.7618 17.4063 94.303" fill="#6C63FF"/>
<path d="M87.3052 157.305L27.0587 155.814L30.4057 160.286L22.7826 166.996C22.7826 166.996 -4.7382 200.542 3.62937 231.107C11.997 261.671 7.28608 442.367 7.28608 442.367L56.3451 437.603L50.9062 255.335L91.0706 323.918L79.3923 435.103L121.194 434.994L134.582 314.973L87.3052 157.305Z" fill="#2F2E41"/>
<path d="M69.9046 67.959C66.0667 62.3904 67.5057 59.3635 59.4437 57.794C54.4916 56.8299 48.6907 55.8303 43.5726 56.1253C38.1325 56.4388 36.0186 59.4438 33.0956 63.3454C29.654 67.9392 27.3633 70.5119 22.243 73.7047C0.588663 87.2079 14.7763 110.204 8.82574 129.336C7.55132 133.434 5.63106 137.391 4.41528 141.497C8.51786 127.642 9.36031 166.635 2.13026 152.791C4.76483 157.835 12.1945 154.132 15.3379 152.072C21.1924 148.236 26.2928 146.724 33.757 145.807C45.3029 144.389 53.4422 151.552 64.2213 153.213C75.819 155.001 86.0575 151.64 91.7481 142.034C99.6362 128.718 96.7329 115.155 90.303 101.76C87.1708 95.2347 83.9694 89.0726 81.1614 82.4142C78.4562 75.9996 74.0073 72.8739 69.4302 67.5363" fill="#6C63FF"/>
<path d="M66.1095 71.7627C61.5468 75.0146 58.7169 82.3967 57.7206 87.2669C56.4328 93.5624 56.549 100.615 57.3247 106.967C58.0957 113.281 59.6659 119.407 60.4175 125.743C61.1657 132.052 67.2305 133.222 68.8965 139.413C70.6001 145.744 68.0067 154.858 75.3603 155.169C82.6788 155.477 88.4516 153.433 94.8082 150.302C110.011 142.814 126.751 132.83 134.164 119.285C136.142 115.67 142.978 107.203 145.042 103.63C147.054 100.145 145.439 93.9332 142.531 90.9572C138.459 86.7897 126.565 85.8999 122.688 81.6746C120.293 84.7394 122.794 91.6441 121.621 95.4223C120.266 99.7841 101.6 117.556 95.6728 116.303C92.0445 115.536 92.9884 102.425 91.489 99.9029C89.3785 96.3525 90.5318 86.1148 88.142 82.757C85.2911 78.7514 88.8579 77.5247 84.1422 74.9327C79.6289 72.4519 71.4035 70.9127 66.1095 71.1992" fill="#6C63FF"/>
<path d="M57.6247 52.3612C72.391 52.3612 84.3616 41.6966 84.3616 28.5411C84.3616 15.3856 72.391 4.72098 57.6247 4.72098C42.8584 4.72098 30.8878 15.3856 30.8878 28.5411C30.8878 41.6966 42.8584 52.3612 57.6247 52.3612Z" fill="#FFB6B6"/>
<path d="M93.8238 21.9203C95.6288 10.3728 90.3661 6.84001 82.1323 5.79351C65.8413 -1.74914 62.1099 0.146897 56.945 0.965497L55.0471 0.601717C49.2226 -0.514733 43.4329 -0.0384438 38.2528 1.70613C27.3267 5.37654 20.149 14.6838 19.3544 25.0621C18.8078 32.2166 13.9713 38.2439 9.31566 44.0541C5.42243 48.9049 8.40013 55.7132 14.9362 56.966L32.0496 60.2464C33.5309 58.5783 34.7148 56.8302 36.0569 54.6398C36.5863 56.5942 36.645 58.8321 36.3688 61.0743C42.4254 63.762 49.0373 64.8741 56.0508 64.847C57.1789 63.5077 58.1895 62.0162 58.0561 60.3359C58.4455 62.0196 58.9219 63.6969 59.004 65.4131C63.4157 62.8821 67.0623 63.6257 69.9739 67.5158C77.3279 62.0857 77.9039 49.6437 69.1624 46.527C61.767 43.8903 73.4326 25.432 81.387 25.0557C81.4382 25.0533 83.5566 32.1898 83.6319 32.0557C84.7543 30.0557 84.2409 28.9594 85.583 26.7689C86.0239 28.4166 86.1432 30.2619 85.9977 32.1404C87.8927 31.7716 89.8119 31.232 91.7488 30.5128C93.9951 27.7948 94.8636 24.9473 93.8238 21.9203Z" fill="#2F2E41"/>
</svg>
