<svg width="443" height="162" viewBox="0 0 443 162" fill="none" xmlns="http://www.w3.org/2000/svg">
<path d="M0 71.9027L0.114747 71.7459C0.114747 71.7982 0.114747 71.8504 0.0917975 71.9027H0ZM151 76.9681C151 62.5981 148.456 49.3842 141.555 36.9933C128.12 13.0247 104.321 0.000181633 76.4475 0.000181633C30.5849 -0.0912641 4.88821 34.3609 0.114747 71.7459C14.022 51.7226 38.4958 32.1042 72.3625 30.9219C72.3625 30.9219 108.318 30.9219 104.957 65.2141H47.3051C49.3935 53.0028 53.3867 45.9452 58.5634 39.4362C33.9584 50.8342 18.6152 70.8217 18.9758 100.94C19.2479 124.275 35.4108 148.244 58.5634 157.114C85.8895 167.513 121.763 159.465 137.289 150.148V116.042C110.776 134.491 48.4854 135.938 48.0297 93.9738H151V76.9681Z" fill="white"/>
<path d="M171.064 81.248C171.064 77.984 171.8 75.056 173.272 72.464C174.744 69.84 176.744 67.792 179.272 66.32C181.832 64.848 184.664 64.112 187.768 64.112C191.416 64.112 194.6 64.992 197.32 66.752C200.04 68.512 202.024 71.008 203.272 74.24H198.04C197.112 72.224 195.768 70.672 194.008 69.584C192.28 68.496 190.2 67.952 187.768 67.952C185.432 67.952 183.336 68.496 181.48 69.584C179.624 70.672 178.168 72.224 177.112 74.24C176.056 76.224 175.528 78.56 175.528 81.248C175.528 83.904 176.056 86.24 177.112 88.256C178.168 90.24 179.624 91.776 181.48 92.864C183.336 93.952 185.432 94.496 187.768 94.496C190.2 94.496 192.28 93.968 194.008 92.912C195.768 91.824 197.112 90.272 198.04 88.256H203.272C202.024 91.456 200.04 93.936 197.32 95.696C194.6 97.424 191.416 98.288 187.768 98.288C184.664 98.288 181.832 97.568 179.272 96.128C176.744 94.656 174.744 92.624 173.272 90.032C171.8 87.44 171.064 84.512 171.064 81.248ZM221.246 98.432C218.782 98.432 216.542 97.872 214.526 96.752C212.542 95.632 210.974 94.048 209.822 92C208.702 89.92 208.142 87.52 208.142 84.8C208.142 82.112 208.718 79.744 209.87 77.696C211.054 75.616 212.654 74.032 214.67 72.944C216.686 71.824 218.942 71.264 221.438 71.264C223.934 71.264 226.19 71.824 228.206 72.944C230.222 74.032 231.806 75.6 232.958 77.648C234.142 79.696 234.734 82.08 234.734 84.8C234.734 87.52 234.126 89.92 232.91 92C231.726 94.048 230.11 95.632 228.062 96.752C226.014 97.872 223.742 98.432 221.246 98.432ZM221.246 94.592C222.814 94.592 224.286 94.224 225.662 93.488C227.038 92.752 228.142 91.648 228.974 90.176C229.838 88.704 230.27 86.912 230.27 84.8C230.27 82.688 229.854 80.896 229.022 79.424C228.19 77.952 227.102 76.864 225.758 76.16C224.414 75.424 222.958 75.056 221.39 75.056C219.79 75.056 218.318 75.424 216.974 76.16C215.662 76.864 214.606 77.952 213.806 79.424C213.006 80.896 212.606 82.688 212.606 84.8C212.606 86.944 212.99 88.752 213.758 90.224C214.558 91.696 215.614 92.8 216.926 93.536C218.238 94.24 219.678 94.592 221.246 94.592ZM272.109 71.216C274.157 71.216 275.981 71.648 277.581 72.512C279.181 73.344 280.445 74.608 281.373 76.304C282.301 78 282.765 80.064 282.765 82.496V98H278.445V83.12C278.445 80.496 277.789 78.496 276.477 77.12C275.197 75.712 273.453 75.008 271.245 75.008C268.973 75.008 267.165 75.744 265.821 77.216C264.477 78.656 263.805 80.752 263.805 83.504V98H259.485V83.12C259.485 80.496 258.829 78.496 257.517 77.12C256.237 75.712 254.493 75.008 252.285 75.008C250.013 75.008 248.205 75.744 246.861 77.216C245.517 78.656 244.845 80.752 244.845 83.504V98H240.477V71.696H244.845V75.488C245.709 74.112 246.861 73.056 248.301 72.32C249.773 71.584 251.389 71.216 253.149 71.216C255.357 71.216 257.309 71.712 259.005 72.704C260.701 73.696 261.965 75.152 262.797 77.072C263.533 75.216 264.749 73.776 266.445 72.752C268.141 71.728 270.029 71.216 272.109 71.216ZM321.562 71.216C323.61 71.216 325.434 71.648 327.034 72.512C328.634 73.344 329.898 74.608 330.826 76.304C331.754 78 332.218 80.064 332.218 82.496V98H327.898V83.12C327.898 80.496 327.242 78.496 325.93 77.12C324.65 75.712 322.906 75.008 320.698 75.008C318.426 75.008 316.618 75.744 315.274 77.216C313.93 78.656 313.258 80.752 313.258 83.504V98H308.938V83.12C308.938 80.496 308.282 78.496 306.97 77.12C305.69 75.712 303.946 75.008 301.738 75.008C299.466 75.008 297.658 75.744 296.314 77.216C294.97 78.656 294.298 80.752 294.298 83.504V98H289.93V71.696H294.298V75.488C295.162 74.112 296.314 73.056 297.754 72.32C299.226 71.584 300.842 71.216 302.602 71.216C304.81 71.216 306.762 71.712 308.458 72.704C310.154 73.696 311.418 75.152 312.25 77.072C312.986 75.216 314.202 73.776 315.898 72.752C317.594 71.728 319.482 71.216 321.562 71.216ZM363.384 83.84C363.384 84.672 363.336 85.552 363.24 86.48H342.216C342.376 89.072 343.256 91.104 344.856 92.576C346.488 94.016 348.456 94.736 350.76 94.736C352.648 94.736 354.216 94.304 355.464 93.44C356.744 92.544 357.64 91.36 358.152 89.888H362.856C362.152 92.416 360.744 94.48 358.632 96.08C356.52 97.648 353.896 98.432 350.76 98.432C348.264 98.432 346.024 97.872 344.04 96.752C342.088 95.632 340.552 94.048 339.432 92C338.312 89.92 337.752 87.52 337.752 84.8C337.752 82.08 338.296 79.696 339.384 77.648C340.472 75.6 341.992 74.032 343.944 72.944C345.928 71.824 348.2 71.264 350.76 71.264C353.256 71.264 355.464 71.808 357.384 72.896C359.304 73.984 360.776 75.488 361.8 77.408C362.856 79.296 363.384 81.44 363.384 83.84ZM358.872 82.928C358.872 81.264 358.504 79.84 357.768 78.656C357.032 77.44 356.024 76.528 354.744 75.92C353.496 75.28 352.104 74.96 350.568 74.96C348.36 74.96 346.472 75.664 344.904 77.072C343.368 78.48 342.488 80.432 342.264 82.928H358.872ZM373.517 75.968C374.285 74.464 375.373 73.296 376.781 72.464C378.221 71.632 379.965 71.216 382.013 71.216V75.728H380.861C375.965 75.728 373.517 78.384 373.517 83.696V98H369.149V71.696H373.517V75.968ZM385.423 84.8C385.423 82.08 385.967 79.712 387.055 77.696C388.143 75.648 389.647 74.064 391.567 72.944C393.519 71.824 395.743 71.264 398.239 71.264C401.471 71.264 404.127 72.048 406.207 73.616C408.319 75.184 409.711 77.36 410.383 80.144H405.679C405.231 78.544 404.351 77.28 403.039 76.352C401.759 75.424 400.159 74.96 398.239 74.96C395.743 74.96 393.727 75.824 392.191 77.552C390.655 79.248 389.887 81.664 389.887 84.8C389.887 87.968 390.655 90.416 392.191 92.144C393.727 93.872 395.743 94.736 398.239 94.736C400.159 94.736 401.759 94.288 403.039 93.392C404.319 92.496 405.199 91.216 405.679 89.552H410.383C409.679 92.24 408.271 94.4 406.159 96.032C404.047 97.632 401.407 98.432 398.239 98.432C395.743 98.432 393.519 97.872 391.567 96.752C389.647 95.632 388.143 94.048 387.055 92C385.967 89.952 385.423 87.552 385.423 84.8ZM440.212 83.84C440.212 84.672 440.164 85.552 440.068 86.48H419.044C419.204 89.072 420.084 91.104 421.684 92.576C423.316 94.016 425.284 94.736 427.588 94.736C429.476 94.736 431.044 94.304 432.292 93.44C433.572 92.544 434.468 91.36 434.98 89.888H439.684C438.98 92.416 437.572 94.48 435.46 96.08C433.348 97.648 430.724 98.432 427.588 98.432C425.092 98.432 422.852 97.872 420.868 96.752C418.916 95.632 417.38 94.048 416.26 92C415.14 89.92 414.58 87.52 414.58 84.8C414.58 82.08 415.124 79.696 416.212 77.648C417.3 75.6 418.82 74.032 420.772 72.944C422.756 71.824 425.028 71.264 427.588 71.264C430.084 71.264 432.292 71.808 434.212 72.896C436.132 73.984 437.604 75.488 438.628 77.408C439.684 79.296 440.212 81.44 440.212 83.84ZM435.7 82.928C435.7 81.264 435.332 79.84 434.596 78.656C433.86 77.44 432.852 76.528 431.572 75.92C430.324 75.28 428.932 74.96 427.396 74.96C425.188 74.96 423.3 75.664 421.732 77.072C420.196 78.48 419.316 80.432 419.092 82.928H435.7Z" fill="white"/>
</svg>
